# xmcd CD database file
#
# Track frame offsets:
#	150
#	20324
#	43048
#	64966
#	84366
#	106700
#	130884
#	153939
#	171768
#	193316
#	218499
#	241575
#	266152
#	283452
#	295346
#	308162
#	317800
#
# Disc length: 4326 seconds
#
# Revision: 3
# Processed by: cddbd v1.5.2PL0 Copyright (c) Steve Scherf et al.
# Submitted via: CDex 1.70beta2
#
DISCID=f310e411
DTITLE=Orquesta Reve - Homenaje 50 Años Orquesta Reve
DYEAR=2006
DGENRE=Salsa
TTITLE0=Elio Revé Duverger - Fresquesito
TTITLE1=Elio Revé Duverger - Se Sigue Comentando - Uyuyuy Qué Veo
TTITLE2=Roberto Morales - Mi Vecina
TTITLE3=Elio Revé Duverger - Dale Agua Al Dominó
TTITLE4=Geovany Cofiño - Tú No Me Llenas
TTITLE5=Elio Revé Matos - Mi Salsa Tiene Sandunga
TTITLE6=Elio Revé Matos - Papá Elegguá
TTITLE7=Elio Revé Duverger - Pu Pu Chan Chan Ahí Viene El Tren
TTITLE8=Elio Revé Matos - Que Cuento Es Ese
TTITLE9=D.R. - El Palo De Anón
TTITLE10=Elio Revé Matos - Changüí Campanero
TTITLE11=Elio Revé Matos - Rumberos Latinoamericanos
TTITLE12=Elio Revé Matos - Samá
TTITLE13=Juan Formell - El Martes
TTITLE14=Elio Revé Matos - El Changüí Está En La Calle
TTITLE15=Juan Formell - Que Bolá, Que Bolón
TTITLE16=Elio Revé Duverger - Fresquesito (fragmento)
EXTD=YEAR: 2006
EXTT0=
EXTT1=
EXTT2=
EXTT3=
EXTT4=
EXTT5=
EXTT6=
EXTT7=
EXTT8=
EXTT9=
EXTT10=
EXTT11=
EXTT12=
EXTT13=
EXTT14=
EXTT15=
EXTT16=
PLAYORDER=
